<svg xmlns="http://www.w3.org/2000/svg" viewBox="0 0 600 360" width="600" height="360">
  <rect width="600" height="360" fill="#f1f5f9"/>
  <rect x="140" y="80" width="160" height="180" rx="12" fill="#e2e8f0" stroke="#cbd5e1"/>
  <rect x="155" y="95" width="130" height="90" rx="8" fill="#fff" stroke="#cbd5e1"/>
  <text x="220" y="145" text-anchor="middle" font-family="system-ui, sans-serif" font-size="14" fill="#64748b">DeskPet</text>
  <text x="220" y="165" text-anchor="middle" font-family="system-ui, sans-serif" font-size="12" fill="#94a3b8">Engine.app</text>
  <rect x="180" y="200" width="25" height="8" rx="4" fill="#94a3b8"/>
  <rect x="215" y="200" width="25" height="8" rx="4" fill="#94a3b8"/>
  <rect x="250" y="200" width="25" height="8" rx="4" fill="#94a3b8"/>
  <text x="220" y="245" text-anchor="middle" font-family="system-ui, sans-serif" font-size="12" fill="#64748b">应用图标</text>

  <path d="M320 160 L380 160" stroke="#64748b" stroke-width="3" marker-end="url(#arrow)"/>
  <defs><marker id="arrow" viewBox="0 0 10 10" refX="8" refY="5" markerWidth="6" markerHeight="6" orient="auto-start-reverse"><path d="M0 0 L10 5 L0 10 z" fill="#64748b"/></marker></defs>

  <rect x="400" y="80" width="160" height="180" rx="12" fill="#f8fafc" stroke="#cbd5e1"/>
  <text x="480" y="115" text-anchor="middle" font-family="system-ui, sans-serif" font-size="14" font-weight="600" fill="#334155">Applications</text>
  <rect x="420" y="130" width="120" height="90" rx="8" fill="#fff" stroke="#cbd5e1"/>
  <text x="480" y="178" text-anchor="middle" font-family="system-ui, sans-serif" font-size="14" fill="#64748b">DeskPet</text>
  <text x="480" y="198" text-anchor="middle" font-family="system-ui, sans-serif" font-size="12" fill="#94a3b8">Engine.app</text>
  <text x="480" y="245" text-anchor="middle" font-family="system-ui, sans-serif" font-size="12" fill="#64748b">拖到此处</text>
  <text x="300" y="320" text-anchor="middle" font-family="system-ui, sans-serif" font-size="13" fill="#64748b">示意图：将应用图标拖入 Applications 文件夹</text>
</svg>
